<?xml version="1.0" encoding="UTF-8"?>
<svg id="_Слой_1" data-name="Слой 1" xmlns="http://www.w3.org/2000/svg" viewBox="0 0 377.57 335.11">
  <defs>
    <style>
      .cls-1 {
        fill: #204998;
      }
    </style>
  </defs>
  <path class="cls-1" d="m89.4,283.11l-31.56,31.11s-130.16-130.28,0-260.44c3.57-3.57,97.33,96.44,97.33,96.44v61.78L63.61,121.08s-46.65,90.47,25.79,162.03Z"/>
  <path class="cls-1" d="m288.16,283.11l31.56,31.11s130.16-130.28,0-260.44c-3.57-3.57-97.33,96.44-97.33,96.44v61.78s91.57-90.92,91.57-90.92c0,0,46.65,90.47-25.79,162.03Z"/>
  <path class="cls-1" d="m84.96,32s91.56-72,207.56,0l-31.56,31.11s-50.33-18.44-50.22-17.33c.93,9.28.24,289.33.24,289.33h-44.24V44.89l-50.67,18.22-31.11-31.11Z"/>
</svg>