<?xml version="1.0" encoding="UTF-8"?>
<svg xmlns="http://www.w3.org/2000/svg" xmlns:xlink="http://www.w3.org/1999/xlink" viewBox="0 0 537 500">
  <defs>
    <style>
      .cls-1 {
        fill: url(#linear-gradient-5);
        filter: url(#outer-glow-5);
      }

      .cls-2 {
        fill: url(#linear-gradient-12);
        filter: url(#outer-glow-12);
      }

      .cls-3 {
        fill: url(#linear-gradient-6);
        filter: url(#outer-glow-6);
      }

      .cls-4 {
        fill: url(#linear-gradient-4);
        filter: url(#outer-glow-4);
      }

      .cls-5 {
        fill: url(#linear-gradient-2);
        filter: url(#outer-glow-2);
      }

      .cls-6 {
        fill: url(#linear-gradient-10);
        filter: url(#outer-glow-10);
      }

      .cls-7 {
        clip-path: url(#clippath);
      }

      .cls-8 {
        fill: none;
      }

      .cls-9 {
        fill: url(#linear-gradient-7);
        filter: url(#outer-glow-7);
      }

      .cls-10 {
        fill: url(#linear-gradient-8);
        filter: url(#outer-glow-8);
      }

      .cls-11 {
        fill: url(#linear-gradient-3);
        filter: url(#outer-glow-3);
      }

      .cls-12 {
        fill: url(#Degradado_sin_nombre_8);
      }

      .cls-13 {
        fill: url(#linear-gradient-11);
        filter: url(#outer-glow-11);
      }

      .cls-14, .cls-15 {
        fill: url(#linear-gradient);
      }

      .cls-16 {
        fill: url(#linear-gradient-9);
        filter: url(#outer-glow-9);
      }

      .cls-15 {
        filter: url(#outer-glow-1);
      }
    </style>
    <radialGradient id="Degradado_sin_nombre_8" data-name="Degradado sin nombre 8" cx="250" cy="250" fx="250" fy="250" r="357.67" gradientUnits="userSpaceOnUse">
      <stop offset="0" stop-color="#fff"/>
      <stop offset=".44" stop-color="#fcfcfc"/>
      <stop offset=".66" stop-color="#f5f5f5"/>
      <stop offset=".83" stop-color="#e8e8e8"/>
      <stop offset=".97" stop-color="#d5d5d5"/>
      <stop offset="1" stop-color="#d1d1d1"/>
    </radialGradient>
    <linearGradient id="linear-gradient" x1="26.78" y1="240" x2="473.22" y2="240" gradientUnits="userSpaceOnUse">
      <stop offset="0" stop-color="#d4f9bd"/>
      <stop offset=".49" stop-color="#9fc1f9"/>
      <stop offset="1" stop-color="#e8a0c9"/>
    </linearGradient>
    <filter id="outer-glow-1" filterUnits="userSpaceOnUse">
      <feOffset dx="0" dy="0"/>
      <feGaussianBlur result="blur" stdDeviation="7"/>
      <feFlood flood-color="#000" flood-opacity=".35"/>
      <feComposite in2="blur" operator="in"/>
      <feComposite in="SourceGraphic"/>
    </filter>
    <clipPath id="clippath">
      <rect class="cls-8" x="26.78" y="100.49" width="446.43" height="279.02"/>
    </clipPath>
    <linearGradient id="linear-gradient-2" x1="-192.54" y1="350.09" x2="132.9" y2="135.78" gradientTransform="translate(247.93) rotate(-180) scale(1 -1)" gradientUnits="userSpaceOnUse">
      <stop offset="0" stop-color="#94e6c4"/>
      <stop offset=".49" stop-color="#725bce"/>
      <stop offset=".58" stop-color="#7264d0"/>
      <stop offset=".73" stop-color="#757dd6"/>
      <stop offset=".91" stop-color="#79a5e0"/>
      <stop offset="1" stop-color="#7bbbe6"/>
    </linearGradient>
    <filter id="outer-glow-2" filterUnits="userSpaceOnUse">
      <feOffset dx="0" dy="0"/>
      <feGaussianBlur result="blur-2" stdDeviation="7"/>
      <feFlood flood-color="#569898" flood-opacity=".55"/>
      <feComposite in2="blur-2" operator="in"/>
      <feComposite in="SourceGraphic"/>
    </filter>
    <linearGradient id="linear-gradient-3" x1="-42.71" y1="117.06" x2="48.96" y2="68.16" gradientTransform="translate(247.93) rotate(-180) scale(1 -1)" gradientUnits="userSpaceOnUse">
      <stop offset="0" stop-color="#94e6c4"/>
      <stop offset=".49" stop-color="#725bce"/>
      <stop offset="1" stop-color="#e8a0c9"/>
    </linearGradient>
    <filter id="outer-glow-3" filterUnits="userSpaceOnUse">
      <feOffset dx="0" dy="0"/>
      <feGaussianBlur result="blur-3" stdDeviation="7"/>
      <feFlood flood-color="#569898" flood-opacity=".55"/>
      <feComposite in2="blur-3" operator="in"/>
      <feComposite in="SourceGraphic"/>
    </filter>
    <linearGradient id="linear-gradient-4" x1="-14.46" y1="301.05" x2="70.01" y2="343.28" gradientTransform="translate(247.93) rotate(-180) scale(1 -1)" gradientUnits="userSpaceOnUse">
      <stop offset="0" stop-color="#94e6c4"/>
      <stop offset=".49" stop-color="#725bce"/>
      <stop offset="1" stop-color="#7bbbe6"/>
    </linearGradient>
    <filter id="outer-glow-4" filterUnits="userSpaceOnUse">
      <feOffset dx="0" dy="0"/>
      <feGaussianBlur result="blur-4" stdDeviation="7"/>
      <feFlood flood-color="#569898" flood-opacity=".55"/>
      <feComposite in2="blur-4" operator="in"/>
      <feComposite in="SourceGraphic"/>
    </filter>
    <linearGradient id="linear-gradient-5" x1="37.97" y1="251.85" x2="69.94" y2="267.84" xlink:href="#linear-gradient-4"/>
    <filter id="outer-glow-5" filterUnits="userSpaceOnUse">
      <feOffset dx="0" dy="0"/>
      <feGaussianBlur result="blur-5" stdDeviation="7"/>
      <feFlood flood-color="#569898" flood-opacity=".55"/>
      <feComposite in2="blur-5" operator="in"/>
      <feComposite in="SourceGraphic"/>
    </filter>
    <linearGradient id="linear-gradient-6" x1="-101.15" y1="93.56" x2="-69.19" y2="109.55" xlink:href="#linear-gradient-4"/>
    <filter id="outer-glow-6" filterUnits="userSpaceOnUse">
      <feOffset dx="0" dy="0"/>
      <feGaussianBlur result="blur-6" stdDeviation="7"/>
      <feFlood flood-color="#569898" flood-opacity=".55"/>
      <feComposite in2="blur-6" operator="in"/>
      <feComposite in="SourceGraphic"/>
    </filter>
    <linearGradient id="linear-gradient-7" x1="-91.79" y1="69.06" x2="-78.89" y2="75.51" xlink:href="#linear-gradient-4"/>
    <filter id="outer-glow-7" filterUnits="userSpaceOnUse">
      <feOffset dx="0" dy="0"/>
      <feGaussianBlur result="blur-7" stdDeviation="7"/>
      <feFlood flood-color="#569898" flood-opacity=".55"/>
      <feComposite in2="blur-7" operator="in"/>
      <feComposite in="SourceGraphic"/>
    </filter>
    <linearGradient id="linear-gradient-8" x1="30.95" y1="107.27" x2="93.54" y2="138.99" xlink:href="#linear-gradient-2"/>
    <filter id="outer-glow-8" filterUnits="userSpaceOnUse">
      <feOffset dx="0" dy="0"/>
      <feGaussianBlur result="blur-8" stdDeviation="7"/>
      <feFlood flood-color="#569898" flood-opacity=".55"/>
      <feComposite in2="blur-8" operator="in"/>
      <feComposite in="SourceGraphic"/>
    </filter>
    <linearGradient id="linear-gradient-9" x1="-103.14" y1="237.56" x2="-45.7" y2="266.67" xlink:href="#linear-gradient-3"/>
    <filter id="outer-glow-9" filterUnits="userSpaceOnUse">
      <feOffset dx="0" dy="0"/>
      <feGaussianBlur result="blur-9" stdDeviation="7"/>
      <feFlood flood-color="#569898" flood-opacity=".55"/>
      <feComposite in2="blur-9" operator="in"/>
      <feComposite in="SourceGraphic"/>
    </filter>
    <linearGradient id="linear-gradient-10" x1="-186.32" y1="195.86" x2="-72.97" y2="356.48" xlink:href="#linear-gradient-2"/>
    <filter id="outer-glow-10" filterUnits="userSpaceOnUse">
      <feOffset dx="0" dy="0"/>
      <feGaussianBlur result="blur-10" stdDeviation="7"/>
      <feFlood flood-color="#569898" flood-opacity=".55"/>
      <feComposite in2="blur-10" operator="in"/>
      <feComposite in="SourceGraphic"/>
    </filter>
    <linearGradient id="linear-gradient-11" x1="-220.61" y1="255.54" x2="-46.94" y2="357.88" gradientTransform="translate(247.93) rotate(-180) scale(1 -1)" gradientUnits="userSpaceOnUse">
      <stop offset="0" stop-color="#94e6c4"/>
      <stop offset=".49" stop-color="#725bce"/>
      <stop offset=".58" stop-color="#765dcd"/>
      <stop offset=".67" stop-color="#8465cd"/>
      <stop offset=".77" stop-color="#9a72cc"/>
      <stop offset=".88" stop-color="#ba85ca"/>
      <stop offset=".98" stop-color="#e29dc9"/>
      <stop offset="1" stop-color="#e8a0c9"/>
    </linearGradient>
    <filter id="outer-glow-11" filterUnits="userSpaceOnUse">
      <feOffset dx="0" dy="0"/>
      <feGaussianBlur result="blur-11" stdDeviation="7"/>
      <feFlood flood-color="#569898" flood-opacity=".55"/>
      <feComposite in2="blur-11" operator="in"/>
      <feComposite in="SourceGraphic"/>
    </filter>
    <linearGradient id="linear-gradient-12" x1="-158.9" y1="154.44" x2="-141.73" y2="178.77" gradientTransform="translate(276.16 -22.41) rotate(-170.75) scale(1 -1)" xlink:href="#linear-gradient-3"/>
    <filter id="outer-glow-12" filterUnits="userSpaceOnUse">
      <feOffset dx="0" dy="0"/>
      <feGaussianBlur result="blur-12" stdDeviation="7"/>
      <feFlood flood-color="#569898" flood-opacity=".55"/>
      <feComposite in2="blur-12" operator="in"/>
      <feComposite in="SourceGraphic"/>
    </filter>
  </defs>
  <g id="BACKGROUND">
    <rect class="cls-12" width="500" height="500"/>
  </g>
  <g id="OBJECTS">
    <g>
      <rect class="cls-15" x="26.78" y="100.49" width="446.43" height="279.02"/>
      <g>
        <rect class="cls-14" x="26.78" y="100.49" width="446.43" height="279.02"/>
        <g class="cls-7">
          <g>
            <path class="cls-5" d="m202.36,292.03c10.95-8.21,24.19-13.32,34.01-22.84,18.85-18.28,26.24-52.57,10.29-73.43-61.28-80.17,1.92-102.57,38.69-104.32,49.38-2.35,83.88,16.71,109.64,61.59,7.61,13.26,15.52,27.01,27.86,36.03,17.65,12.91,41.24,13.14,63.1,12.85,12.87,19.43,12.04,44.54,10.75,67.81-.76,13.77-1.59,27.83-6.72,40.63-6.11,15.24-17.8,27.46-29.31,39.16-5.71,5.81-11.6,11.7-18.91,15.3-10.06,4.95-21.74,5.06-32.95,5.06-64.2.02-128.41.03-192.61.05-16.43,0-50.68-2.1-48.99-26.2,1.17-16.63,22.54-42.24,35.15-51.69Z"/>
            <path class="cls-11" d="m241.89,88.96c7.2-6.32,16.74-9.55,26.28-10.34,0,0,16.56-2.28,26.18,5.38,5.08,4.05,6.71,12.71,1.83,17.01-4.09,3.6-10.26,2.68-15.7,2.52-11.61-.33-23.49,4.19-31.17,12.9-3.16,3.59-6.69,8.3-11.41,7.54-4.15-.67-6.33-5.37-6.77-9.54-1-9.52,3.57-19.15,10.76-25.46Z"/>
            <path class="cls-4" d="m251.88,326.05c-4.01,8-10.62,16.26-19.3,18.48-5.65,1.45-14.59,1.77-17.74-4.73-3.77-7.79-.54-18.25,10.54-27.53,5.79-4.85,2.61-13.47,6.11-21.72,4.29-10.12,16.73-7.92,20.9,1.8,4.4,10.24,4.46,23.78-.52,33.7Z"/>
            <circle class="cls-1" cx="198.98" cy="257.34" r="10.37"/>
            <circle class="cls-3" cx="338.1" cy="99.05" r="10.37"/>
            <circle class="cls-9" cx="335.29" cy="71.28" r="4.19"/>
            <path class="cls-10" d="m212.61,117.77c-1.52,6.59-6.43,11.89-11.55,16.31-10.43,9.01-26.7,6.6-30.82,4.01-7.75-4.88-7-16.75,5.46-20.11,3.62-.98,6.3-4.05,8.59-7.02,4.56-5.88,11-15.78,19.54-14.13,10.41,2.01,10.27,14.49,8.78,20.94Z"/>
            <circle class="cls-16" cx="326.53" cy="250" r="25"/>
            <path class="cls-6" d="m282.49,357.34c27.54-21.46,44.89-55.48,46.08-90.38.37-10.72-.75-21.63-4.65-31.63-5.49-14.08-16.1-25.47-23.91-38.4-7.82-12.93-12.77-29.52-5.88-42.97,7.03-13.71,24.86-19.4,39.85-15.82,14.99,3.58,27.21,14.6,36.24,27.09,7.68,10.62,13.79,22.8,24.27,30.67,13.73,10.31,32.67,11.17,49.32,6.95,16.65-4.22,31.75-12.88,47.17-20.43,2.14-1.05,4.37-2.09,6.75-2.09,6.7,0,10.42,7.64,12.11,14.13,13.52,51.87.16,107.11-20.31,156.65-5.68,13.75-12.2,27.67-23.21,37.67-13.68,12.41-32.77,17.25-51.23,17.84-18.46.59-36.8-2.61-55.2-4.17-37.14-3.16-75.05.29-111.32-8.28-4.96-1.17-10.67-2.85-13.89-7.11-3-3.97-2.41-10.69,1.86-13.72,3.01-2.13,7.03-1.04,10.44-.95,5.73.14,11.17-1.43,16.44-3.62,6.86-2.85,13.21-6.86,19.06-11.42Z"/>
            <path class="cls-13" d="m283.52,337.62c.46-.63,1.03-1.23,1.78-1.45.57-.17,1.18-.1,1.77,0,1.9.28,6.91,1.02,8.82,1.21,13.12,1.29,26.64-1.95,37.74-9.06,11.1-7.11,19.7-18.03,24.01-30.49,5.22-15.09,4.17-31.67,8.18-47.12,1.58-6.1,4.01-12.09,8.05-16.93,9.52-11.4,27.55-14.05,40.52-6.8,12.97,7.24,20.15,23.09,18.18,37.81-.76,5.66-2.7,11.09-3.86,16.68-4.87,23.32,3.77,48.9-5.74,70.74-8.33,19.13-31.03,30.77-51.42,26.37-13.68-2.95-28.59-.42-42.18-3.73-5.38-1.31-10.5-3.51-15.59-5.69-4.37-1.88-8.74-3.75-13.12-5.63-5.51-2.36-11.21-4.87-15.14-9.38-3.94-4.52-5.53-11.68-2-16.52Z"/>
            <circle class="cls-2" cx="400.58" cy="163.3" r="10.24" transform="translate(-21.03 66.49) rotate(-9.25)"/>
          </g>
        </g>
      </g>
    </g>
  </g>
</svg>