<?xml version="1.0" encoding="utf-8"?>
<!-- Generator: Adobe Illustrator 27.2.0, SVG Export Plug-In . SVG Version: 6.00 Build 0)  -->
<svg version="1.1" id="_Слой_1" xmlns="http://www.w3.org/2000/svg" xmlns:xlink="http://www.w3.org/1999/xlink" x="0px"
	 y="0px" viewBox="0 0 488.6 321.4" style="enable-background:new 0 0 488.6 321.4;" xml:space="preserve">
<style type="text/css">
	.st0{fill:url(#SVGID_1_);}
	.st1{fill:url(#SVGID_00000011742256031095318600000017280530320737375418_);}
	.st2{clip-path:url(#SVGID_00000135664909273576186030000001764323485306042025_);}
	.st3{fill:url(#SVGID_00000093170250275560325010000006742550102572168126_);}
	.st4{fill:url(#SVGID_00000146482091652225845280000011042421041997760640_);}
	.st5{fill:url(#SVGID_00000090992897367421271770000012796647443505286554_);}
	.st6{fill:url(#SVGID_00000105419563545232586500000012494663221001192376_);}
	.st7{fill:url(#SVGID_00000043437703650676029050000011668051797556092295_);}
	.st8{fill:url(#SVGID_00000035530927440260480000000003645611375732387256_);}
	.st9{fill:url(#SVGID_00000049920268991929115400000017849394915474232457_);}
	.st10{fill:url(#SVGID_00000088104781244297281550000015654051897592811138_);}
	.st11{fill:url(#SVGID_00000001632027293763021580000016760601920206257336_);}
	.st12{fill:url(#SVGID_00000060018165017855243220000017646025849448581554_);}
	.st13{fill:url(#SVGID_00000160154921965475931940000001470099025410663303_);}
</style>
<linearGradient id="SVGID_1_" gradientUnits="userSpaceOnUse" x1="-9.002495e-02" y1="161.19" x2="488.64" y2="161.19" gradientTransform="matrix(1 0 0 -1 0 321.89)">
	<stop  offset="0" style="stop-color:#D4E5B9"/>
	<stop  offset="0.49" style="stop-color:#A1BEE5"/>
	<stop  offset="1" style="stop-color:#E6A0C7"/>
</linearGradient>
<rect x="-0.1" class="st0" width="488.7" height="321.4"/>
<g>
	
		<linearGradient id="SVGID_00000093144720989522704320000015319194798936742584_" gradientUnits="userSpaceOnUse" x1="-9.002495e-02" y1="161.19" x2="488.64" y2="161.19" gradientTransform="matrix(1 0 0 -1 0 321.89)">
		<stop  offset="0" style="stop-color:#D4E5B9"/>
		<stop  offset="0.49" style="stop-color:#A1BEE5"/>
		<stop  offset="1" style="stop-color:#E6A0C7"/>
	</linearGradient>
	<rect x="-0.1" style="fill:url(#SVGID_00000093144720989522704320000015319194798936742584_);" width="488.7" height="321.4"/>
	<g>
		<defs>
			<rect id="SVGID_00000075843831122720179610000000780195182661344445_" x="-0.1" width="488.7" height="321.4"/>
		</defs>
		<clipPath id="SVGID_00000080180222133351639300000013697666585968135597_">
			<use xlink:href="#SVGID_00000075843831122720179610000000780195182661344445_"  style="overflow:visible;"/>
		</clipPath>
		<g style="clip-path:url(#SVGID_00000080180222133351639300000013697666585968135597_);">
			<g>
				
					<linearGradient id="SVGID_00000077295520699498257720000009302893755993566090_" gradientUnits="userSpaceOnUse" x1="-352.1506" y1="39.6556" x2="10.6153" y2="278.5456" gradientTransform="matrix(-1 0 0 -1 102.65 321.89)">
					<stop  offset="0" style="stop-color:#9DD1BC"/>
					<stop  offset="0.49" style="stop-color:#6359A3"/>
					<stop  offset="0.58" style="stop-color:#6562A9"/>
					<stop  offset="0.73" style="stop-color:#6B7BBA"/>
					<stop  offset="0.91" style="stop-color:#75A3D6"/>
					<stop  offset="1" style="stop-color:#7BBBE6"/>
				</linearGradient>
				<path style="fill:url(#SVGID_00000077295520699498257720000009302893755993566090_);" d="M192.1,220.6
					c12-9.5,26.5-15.3,37.2-26.3c20.6-21.1,28.7-60.6,11.3-84.6C173.5,17.4,242.7-8.4,283-10.4c54.1-2.7,91.8,19.2,120,70.9
					c8.3,15.3,17,31.1,30.5,41.5c19.3,14.9,45.1,15.1,69.1,14.8c14.1,22.4,13.2,51.3,11.8,78.1c-0.8,15.9-1.7,32.1-7.4,46.8
					c-6.7,17.6-19.5,31.6-32.1,45.1c-6.3,6.7-12.7,13.5-20.7,17.6c-11,5.7-23.8,5.8-36.1,5.8c-70.3,0-140.6,0-210.9,0.1
					c-18,0-55.5-2.4-53.6-30.2C154.9,261,178.3,231.5,192.1,220.6L192.1,220.6z"/>
				
					<linearGradient id="SVGID_00000053519221433566786550000004909913206996057993_" gradientUnits="userSpaceOnUse" x1="-186.0308" y1="303.6885" x2="-85.6391" y2="357.241" gradientTransform="matrix(-1 0 0 -1 102.65 321.89)">
					<stop  offset="0" style="stop-color:#9DD1BC"/>
					<stop  offset="0.49" style="stop-color:#6359A3"/>
					<stop  offset="1" style="stop-color:#E6A0C7"/>
				</linearGradient>
				<path style="fill:url(#SVGID_00000053519221433566786550000004909913206996057993_);" d="M235.4-13.3c7.9-7.3,18.3-11,28.8-11.9
					c0,0,18.1-2.6,28.7,6.2c5.6,4.7,7.3,14.6,2,19.6c-4.5,4.1-11.2,3.1-17.2,2.9c-12.7-0.4-25.7,4.8-34.1,14.9
					c-3.5,4.1-7.3,9.6-12.5,8.7c-4.5-0.8-6.9-6.2-7.4-11C222.5,5.1,227.5-6,235.4-13.3L235.4-13.3z"/>
				
					<linearGradient id="SVGID_00000093152350071485904590000005352211301006605995_" gradientUnits="userSpaceOnUse" x1="-155.8137" y1="90.4479" x2="-61.4261" y2="43.2485" gradientTransform="matrix(-1 0 0 -1 102.65 321.89)">
					<stop  offset="0" style="stop-color:#9DD1BC"/>
					<stop  offset="0.49" style="stop-color:#6359A3"/>
					<stop  offset="1" style="stop-color:#7BBBE6"/>
				</linearGradient>
				<path style="fill:url(#SVGID_00000093152350071485904590000005352211301006605995_);" d="M246.3,259.8
					c-4.4,9.2-11.6,18.7-21.1,21.3c-6.2,1.7-16,2-19.4-5.4c-4.1-9-0.6-21,11.5-31.7c6.3-5.6,2.9-15.5,6.7-25
					c4.7-11.7,18.3-9.1,22.9,2.1C251.7,232.8,251.8,248.4,246.3,259.8L246.3,259.8z"/>
				
					<linearGradient id="SVGID_00000057136978727626463100000000785887689393507738_" gradientUnits="userSpaceOnUse" x1="-97.9252" y1="147.2888" x2="-62.5538" y2="129.6087" gradientTransform="matrix(-1 0 0 -1 102.65 321.89)">
					<stop  offset="0" style="stop-color:#9DD1BC"/>
					<stop  offset="0.49" style="stop-color:#6359A3"/>
					<stop  offset="1" style="stop-color:#7BBBE6"/>
				</linearGradient>
				
					<ellipse style="fill:url(#SVGID_00000057136978727626463100000000785887689393507738_);" cx="188.4" cy="180.7" rx="11.4" ry="11.9"/>
				
					<linearGradient id="SVGID_00000085228285074782904230000016964523071935820684_" gradientUnits="userSpaceOnUse" x1="-250.2271" y1="329.6213" x2="-214.8557" y2="311.9411" gradientTransform="matrix(-1 0 0 -1 102.65 321.89)">
					<stop  offset="0" style="stop-color:#9DD1BC"/>
					<stop  offset="0.49" style="stop-color:#6359A3"/>
					<stop  offset="1" style="stop-color:#7BBBE6"/>
				</linearGradient>
				
					<ellipse style="fill:url(#SVGID_00000085228285074782904230000016964523071935820684_);" cx="340.7" cy="-1.7" rx="11.4" ry="11.9"/>
				
					<linearGradient id="SVGID_00000073721045812103841680000014275496969755147912_" gradientUnits="userSpaceOnUse" x1="-239.904" y1="358.0031" x2="-225.6311" y2="350.8555" gradientTransform="matrix(-1 0 0 -1 102.65 321.89)">
					<stop  offset="0" style="stop-color:#9DD1BC"/>
					<stop  offset="0.49" style="stop-color:#6359A3"/>
					<stop  offset="1" style="stop-color:#7BBBE6"/>
				</linearGradient>
				
					<ellipse style="fill:url(#SVGID_00000073721045812103841680000014275496969755147912_);" cx="337.7" cy="-33.7" rx="4.6" ry="4.8"/>
				
					<linearGradient id="SVGID_00000001659411779435601050000000783518400083784887_" gradientUnits="userSpaceOnUse" x1="-105.8663" y1="313.6971" x2="-36.4129" y2="278.4877" gradientTransform="matrix(-1 0 0 -1 102.65 321.89)">
					<stop  offset="0" style="stop-color:#9DD1BC"/>
					<stop  offset="0.49" style="stop-color:#6359A3"/>
					<stop  offset="0.58" style="stop-color:#6562A9"/>
					<stop  offset="0.73" style="stop-color:#6B7BBA"/>
					<stop  offset="0.91" style="stop-color:#75A3D6"/>
					<stop  offset="1" style="stop-color:#7BBBE6"/>
				</linearGradient>
				<path style="fill:url(#SVGID_00000001659411779435601050000000783518400083784887_);" d="M203.3,19.9c-1.7,7.6-7,13.7-12.6,18.8
					c-11.4,10.4-29.2,7.6-33.7,4.6c-8.5-5.6-7.7-19.3,6-23.2c4-1.1,6.9-4.7,9.4-8.1c5-6.8,12-18.2,21.4-16.3
					C205.1-1.9,205,12.5,203.3,19.9z"/>
				
					<linearGradient id="SVGID_00000088111356388833611950000003445045272762183046_" gradientUnits="userSpaceOnUse" x1="-252.5732" y1="163.4409" x2="-189.007" y2="131.2152" gradientTransform="matrix(-1 0 0 -1 102.65 321.89)">
					<stop  offset="0" style="stop-color:#9DD1BC"/>
					<stop  offset="0.49" style="stop-color:#6359A3"/>
					<stop  offset="1" style="stop-color:#E6A0C7"/>
				</linearGradient>
				
					<ellipse style="fill:url(#SVGID_00000088111356388833611950000003445045272762183046_);" cx="328.1" cy="172.2" rx="27.4" ry="28.8"/>
				
					<linearGradient id="SVGID_00000064314095924215906930000006237895230652789637_" gradientUnits="userSpaceOnUse" x1="-344.6827" y1="210.0226" x2="-217.1795" y2="29.347" gradientTransform="matrix(-1 0 0 -1 102.65 321.89)">
					<stop  offset="0" style="stop-color:#9DD1BC"/>
					<stop  offset="0.49" style="stop-color:#6359A3"/>
					<stop  offset="0.58" style="stop-color:#6562A9"/>
					<stop  offset="0.73" style="stop-color:#6B7BBA"/>
					<stop  offset="0.91" style="stop-color:#75A3D6"/>
					<stop  offset="1" style="stop-color:#7BBBE6"/>
				</linearGradient>
				<path style="fill:url(#SVGID_00000064314095924215906930000006237895230652789637_);" d="M279.8,295.9
					C310,271.1,329,232,330.3,191.8c0.4-12.3-0.8-24.9-5.1-36.4c-6-16.2-17.6-29.3-26.2-44.2c-8.6-14.9-14-34-6.4-49.5
					c7.7-15.8,27.2-22.3,43.6-18.2c16.4,4.1,29.8,16.8,39.7,31.2c8.4,12.2,15.1,26.3,26.6,35.3c15,11.9,35.8,12.9,54,8
					c18.2-4.9,34.8-14.8,51.6-23.5c2.3-1.2,4.8-2.4,7.4-2.4c7.3,0,11.4,8.8,13.3,16.3c14.8,59.7,0.2,123.4-22.2,180.4
					c-6.2,15.8-13.4,31.9-25.4,43.4c-15,14.3-35.9,19.9-56.1,20.5c-20.2,0.7-40.3-3-60.4-4.8c-40.7-3.6-82.2,0.3-121.9-9.5
					c-5.4-1.3-11.7-3.3-15.2-8.2c-3.3-4.6-2.6-12.3,2-15.8c3.3-2.5,7.7-1.2,11.4-1.1c6.3,0.2,12.2-1.6,18-4.2
					C266.5,305.7,273.4,301.1,279.8,295.9L279.8,295.9z"/>
				
					<linearGradient id="SVGID_00000094580403772590750320000012763536113513531035_" gradientUnits="userSpaceOnUse" x1="-382.8218" y1="141.8811" x2="-189.5612" y2="28.0079" gradientTransform="matrix(-1 0 0 -1 102.65 321.89)">
					<stop  offset="0" style="stop-color:#9DD1BC"/>
					<stop  offset="0.49" style="stop-color:#6359A3"/>
					<stop  offset="0.57" style="stop-color:#675BA4"/>
					<stop  offset="0.66" style="stop-color:#7562A8"/>
					<stop  offset="0.76" style="stop-color:#8B6FAE"/>
					<stop  offset="0.86" style="stop-color:#AB80B6"/>
					<stop  offset="0.96" style="stop-color:#D496C2"/>
					<stop  offset="1" style="stop-color:#E6A0C7"/>
				</linearGradient>
				<path style="fill:url(#SVGID_00000094580403772590750320000012763536113513531035_);" d="M281,273.1c0.5-0.7,1.1-1.4,1.9-1.7
					c0.6-0.2,1.3-0.1,1.9,0c2.1,0.3,7.6,1.2,9.7,1.4c14.4,1.5,29.2-2.2,41.3-10.4c12.2-8.2,21.6-20.8,26.3-35.1
					c5.7-17.4,4.6-36.5,9-54.3c1.7-7,4.4-13.9,8.8-19.5c10.4-13.1,30.2-16.2,44.4-7.8c14.2,8.3,22.1,26.6,19.9,43.6
					c-0.8,6.5-3,12.8-4.2,19.2c-5.3,26.9,4.1,56.3-6.3,81.5c-9.1,22-34,35.4-56.3,30.4c-15-3.4-31.3-0.5-46.2-4.3
					c-5.9-1.5-11.5-4-17.1-6.6c-4.8-2.2-9.6-4.3-14.4-6.5c-6-2.7-12.3-5.6-16.6-10.8C278.9,287,277.1,278.7,281,273.1L281,273.1z"/>
				
					<linearGradient id="SVGID_00000161592303218716966350000002395658072076999345_" gradientUnits="userSpaceOnUse" x1="-313.5522" y1="259.5883" x2="-294.0948" y2="232.0172" gradientTransform="matrix(-1 0 0 -1 102.6456 321.8769)">
					<stop  offset="0" style="stop-color:#9DD1BC"/>
					<stop  offset="0.49" style="stop-color:#6359A3"/>
					<stop  offset="1" style="stop-color:#E6A0C7"/>
				</linearGradient>
				
					<ellipse style="fill:url(#SVGID_00000161592303218716966350000002395658072076999345_);" cx="409.1" cy="72.3" rx="11.2" ry="11.8"/>
			</g>
		</g>
	</g>
</g>
</svg>
