<?xml version="1.0" encoding="UTF-8"?>
<svg id="_Слой_1" data-name="Слой 1" xmlns="http://www.w3.org/2000/svg" xmlns:xlink="http://www.w3.org/1999/xlink" viewBox="0 0 426.67 284.45">
  <defs>
    <style>
      .cls-1 {
        fill: url(#_Безымянный_градиент_16-2);
      }

      .cls-2 {
        fill: url(#_Безымянный_градиент_16-6);
      }

      .cls-3 {
        clip-path: url(#clippath);
      }

      .cls-4 {
        fill: none;
      }

      .cls-5 {
        fill: url(#_Безымянный_градиент_16-4);
      }

      .cls-6 {
        fill: url(#_Безымянный_градиент_16-3);
      }

      .cls-7 {
        fill: url(#_Безымянный_градиент_16-5);
      }

      .cls-8 {
        fill: url(#_Безымянный_градиент_16);
      }
    </style>
    <clipPath id="clippath">
      <rect class="cls-4" width="426.67" height="284.45" rx="9.51" ry="9.51"/>
    </clipPath>
    <linearGradient id="_Безымянный_градиент_16" data-name="Безымянный градиент 16" x1="579.66" y1="376.4" x2="147.09" y2="83.09" gradientTransform="translate(0 267.83) scale(1 -1)" gradientUnits="userSpaceOnUse">
      <stop offset="0" stop-color="#417abe"/>
      <stop offset="1" stop-color="#6bc5d8"/>
    </linearGradient>
    <linearGradient id="_Безымянный_градиент_16-2" data-name="Безымянный градиент 16" x1="-24.33" y1="227.35" x2="147.87" y2="46.45" gradientTransform="translate(252.09 267.83) rotate(-180)" xlink:href="#_Безымянный_градиент_16"/>
    <linearGradient id="_Безымянный_градиент_16-3" data-name="Безымянный градиент 16" x1="50.9" y1="189.54" x2="192.67" y2="48.65" gradientTransform="translate(252.09 267.83) rotate(-180)" xlink:href="#_Безымянный_градиент_16"/>
    <linearGradient id="_Безымянный_градиент_16-4" data-name="Безымянный градиент 16" x1="285.09" y1="180.05" x2="460.77" y2="26.12" xlink:href="#_Безымянный_градиент_16"/>
    <linearGradient id="_Безымянный_градиент_16-5" data-name="Безымянный градиент 16" x1="403.06" y1="25.31" x2="405.2" y2="25.31" gradientTransform="matrix(1, 0, 0, 1, 0, 0)" xlink:href="#_Безымянный_градиент_16"/>
    <linearGradient id="_Безымянный_градиент_16-6" data-name="Безымянный градиент 16" x1="404.88" y1="26.54" x2="405.84" y2="26.54" gradientTransform="matrix(1, 0, 0, 1, 0, 0)" xlink:href="#_Безымянный_градиент_16"/>
  </defs>
  <g class="cls-3">
    <g>
      <rect class="cls-8" x="-7.1" y="-3.1" width="434.87" height="289.91"/>
      <path class="cls-1" d="m200.17,96.69c18.26,69.58,152.2,66.1,183.51,120.02,15.72,27.07,6.45,52.82-20.11,70.11H-6.77V-3.1h93.14c4.92,44.24,97.46,37.52,113.81,99.79h0Z"/>
      <path class="cls-6" d="m144.51,124.52c12.18,73.92,134.81,77.4,142.63,131.32,2.11,14.52-.15,24.19-5.93,30.97H-6.77V-3.1h58.05c-2.1,54.61,82.44,62.1,93.23,127.62h0Z"/>
      <path class="cls-5" d="m403.47-3.1c6.95,65-46.8,79.44-51.32,144.96-5.1,73.92-81.39,79.31-86.1,133.12-.36,4.11-.41,8.05-.2,11.84h161.92V-3.1h-24.3,0Z"/>
      <g>
        <path class="cls-7" d="m404.88,24.56c.42.42.42,1.09,0,1.5-.41.41-1.09.41-1.5,0-.42-.41-.42-1.09,0-1.5s1.09-.41,1.5,0Z"/>
        <line class="cls-2" x1="404.88" y1="26.06" x2="405.84" y2="27.02"/>
      </g>
    </g>
  </g>
</svg>